{
	"asset":{
		"generator":"Khronos glTF Blender I/O v4.0.44",
		"version":"2.0"
	},
	"scene":0,
	"scenes":[
		{
			"name":"Scene",
			"nodes":[
				0,
				1,
				2,
				3,
				4,
				5,
				6,
				7
			]
		}
	],
	"nodes":[
		{
			"mesh":0,
			"name":"body.001",
			"scale":[
				0.2575356066226959,
				0.19746901094913483,
				0.3899434208869934
			]
		},
		{
			"mesh":1,
			"name":"eye.001",
			"rotation":[
				0,
				0,
				-0.7071068286895752,
				0.7071068286895752
			],
			"scale":[
				-0.30565622448921204,
				-0.07010489702224731,
				-0.29017576575279236
			]
		},
		{
			"mesh":2,
			"name":"leftarm",
			"rotation":[
				0.7071068286895752,
				0,
				0,
				0.7071068286895752
			],
			"scale":[
				0.05541658028960228,
				0.31684064865112305,
				0.06539028882980347
			]
		},
		{
			"mesh":3,
			"name":"greenCilinder",
			"rotation":[
				1,
				0,
				0,
				0
			],
			"scale":[
				-0.15523415803909302,
				-0.3593791127204895,
				-0.14361386001110077
			]
		},
		{
			"mesh":4,
			"name":"foot",
			"scale":[
				0.1116502657532692,
				0.22121798992156982,
				0.11868894845247269
			]
		},
		{
			"mesh":5,
			"name":"arrayCilindere",
			"rotation":[
				0.7071068286895752,
				-0.7071068286895752,
				0,
				4.216080373709019e-09
			],
			"scale":[
				-0.044933270663022995,
				-0.044933270663022995,
				-0.044933270663022995
			]
		},
		{
			"mesh":6,
			"name":"eyeCirc",
			"rotation":[
				0,
				0,
				-0.7071067690849304,
				0.7071068286895752
			],
			"scale":[
				-0.05580606311559677,
				-0.012799602001905441,
				-0.05297967791557312
			]
		},
		{
			"mesh":7,
			"name":"righthand",
			"rotation":[
				0.7039219737052917,
				0.06408723443746567,
				-0.019664747640490532,
				0.7071067690849304
			],
			"scale":[
				0.04454251006245613,
				0.26737937331199646,
				0.04022619500756264
			]
		}
	],
	"materials":[
		{
			"doubleSided":true,
			"name":"Material.013",
			"pbrMetallicRoughness":{
				"baseColorFactor":[
					0.00518572935834527,
					0.019953034818172455,
					0.7999992966651917,
					1
				],
				"metallicFactor":0,
				"roughnessFactor":0.5
			}
		},
		{
			"doubleSided":true,
			"name":"Material.017",
			"pbrMetallicRoughness":{
				"baseColorFactor":[
					0.7914310693740845,
					0.7990679740905762,
					0.6866357922554016,
					1
				],
				"metallicFactor":0,
				"roughnessFactor":0.5
			}
		},
		{
			"doubleSided":true,
			"name":"Material.016",
			"pbrMetallicRoughness":{
				"baseColorFactor":[
					0.7992379665374756,
					0.46776339411735535,
					0.12213006615638733,
					1
				],
				"metallicFactor":0,
				"roughnessFactor":0.5
			}
		},
		{
			"doubleSided":true,
			"name":"Material.019",
			"pbrMetallicRoughness":{
				"baseColorFactor":[
					0.36568987369537354,
					0.7999992966651917,
					0.11996964365243912,
					1
				],
				"metallicFactor":0,
				"roughnessFactor":0.5
			}
		},
		{
			"doubleSided":true,
			"name":"Material.018",
			"pbrMetallicRoughness":{
				"baseColorFactor":[
					0.7992379665374756,
					0.46776339411735535,
					0.12213006615638733,
					1
				],
				"metallicFactor":0,
				"roughnessFactor":0.5
			}
		},
		{
			"doubleSided":true,
			"name":"Material.015",
			"pbrMetallicRoughness":{
				"baseColorFactor":[
					0.7999997735023499,
					0.041944604367017746,
					0.023827482014894485,
					1
				],
				"metallicFactor":0,
				"roughnessFactor":0.5
			}
		},
		{
			"doubleSided":true,
			"name":"Material.020",
			"pbrMetallicRoughness":{
				"baseColorFactor":[
					0,
					0,
					0,
					1
				],
				"metallicFactor":0,
				"roughnessFactor":0.5
			}
		},
		{
			"doubleSided":true,
			"name":"Material.014",
			"pbrMetallicRoughness":{
				"baseColorFactor":[
					0.7992379665374756,
					0.46776339411735535,
					0.12213006615638733,
					1
				],
				"metallicFactor":0,
				"roughnessFactor":0.5
			}
		}
	],
	"meshes":[
		{
			"name":"Cylinder.010",
			"primitives":[
				{
					"attributes":{
						"POSITION":0,
						"NORMAL":1,
						"TEXCOORD_0":2
					},
					"indices":3,
					"material":0
				}
			]
		},
		{
			"name":"Cylinder.011",
			"primitives":[
				{
					"attributes":{
						"POSITION":4,
						"NORMAL":5,
						"TEXCOORD_0":6
					},
					"indices":7,
					"material":1
				}
			]
		},
		{
			"name":"Cube.005",
			"primitives":[
				{
					"attributes":{
						"POSITION":8,
						"NORMAL":9,
						"TEXCOORD_0":10
					},
					"indices":11,
					"material":2
				}
			]
		},
		{
			"name":"Cylinder",
			"primitives":[
				{
					"attributes":{
						"POSITION":12,
						"NORMAL":13,
						"TEXCOORD_0":14
					},
					"indices":15,
					"material":3
				}
			]
		},
		{
			"name":"Cylinder.005",
			"primitives":[
				{
					"attributes":{
						"POSITION":16,
						"NORMAL":17,
						"TEXCOORD_0":18
					},
					"indices":19,
					"material":4
				}
			]
		},
		{
			"name":"Cylinder.008",
			"primitives":[
				{
					"attributes":{
						"POSITION":20,
						"NORMAL":21,
						"TEXCOORD_0":22
					},
					"indices":23,
					"material":5
				}
			]
		},
		{
			"name":"Cylinder.009",
			"primitives":[
				{
					"attributes":{
						"POSITION":24,
						"NORMAL":25,
						"TEXCOORD_0":26
					},
					"indices":7,
					"material":6
				}
			]
		},
		{
			"name":"Cube.006",
			"primitives":[
				{
					"attributes":{
						"POSITION":27,
						"NORMAL":28,
						"TEXCOORD_0":29
					},
					"indices":30,
					"material":7
				}
			]
		}
	],
	"accessors":[
		{
			"bufferView":0,
			"componentType":5126,
			"count":1242,
			"max":[
				1.4639041423797607,
				5.581618309020996,
				-3.0094432830810547
			],
			"min":[
				-0.11234748363494873,
				-3.287804365158081,
				-4.585694789886475
			],
			"type":"VEC3"
		},
		{
			"bufferView":1,
			"componentType":5126,
			"count":1242,
			"type":"VEC3"
		},
		{
			"bufferView":2,
			"componentType":5126,
			"count":1242,
			"type":"VEC2"
		},
		{
			"bufferView":3,
			"componentType":5123,
			"count":4536,
			"type":"SCALAR"
		},
		{
			"bufferView":4,
			"componentType":5126,
			"count":130,
			"max":[
				0.4061284065246582,
				-3.4886698722839355,
				6.107428073883057
			],
			"min":[
				-1.5938715934753418,
				-5.4886698722839355,
				4.107428073883057
			],
			"type":"VEC3"
		},
		{
			"bufferView":5,
			"componentType":5126,
			"count":130,
			"type":"VEC3"
		},
		{
			"bufferView":6,
			"componentType":5126,
			"count":130,
			"type":"VEC2"
		},
		{
			"bufferView":7,
			"componentType":5123,
			"count":372,
			"type":"SCALAR"
		},
		{
			"bufferView":8,
			"componentType":5126,
			"count":81,
			"max":[
				4.140522003173828,
				-1.9463014602661133,
				0.7170600891113281
			],
			"min":[
				2.140521764755249,
				-3.9463014602661133,
				-15.041258811950684
			],
			"type":"VEC3"
		},
		{
			"bufferView":9,
			"componentType":5126,
			"count":81,
			"type":"VEC3"
		},
		{
			"bufferView":10,
			"componentType":5126,
			"count":81,
			"type":"VEC2"
		},
		{
			"bufferView":11,
			"componentType":5123,
			"count":180,
			"type":"SCALAR"
		},
		{
			"bufferView":12,
			"componentType":5126,
			"count":130,
			"max":[
				-0.12112557888031006,
				-1.287200689315796,
				-8.533092498779297
			],
			"min":[
				-2.1211256980895996,
				-3.287200689315796,
				-10.533092498779297
			],
			"type":"VEC3"
		},
		{
			"bufferView":13,
			"componentType":5126,
			"count":130,
			"type":"VEC3"
		},
		{
			"bufferView":14,
			"componentType":5126,
			"count":130,
			"type":"VEC2"
		},
		{
			"bufferView":15,
			"componentType":5123,
			"count":372,
			"type":"SCALAR"
		},
		{
			"bufferView":16,
			"componentType":5126,
			"count":769,
			"max":[
				2.6151511669158936,
				-2.7093312740325928,
				-12.850716590881348
			],
			"min":[
				0.6151511669158936,
				-4.709331512451172,
				-14.850716590881348
			],
			"type":"VEC3"
		},
		{
			"bufferView":17,
			"componentType":5126,
			"count":769,
			"type":"VEC3"
		},
		{
			"bufferView":18,
			"componentType":5126,
			"count":769,
			"type":"VEC2"
		},
		{
			"bufferView":19,
			"componentType":5123,
			"count":2676,
			"type":"SCALAR"
		},
		{
			"bufferView":20,
			"componentType":5126,
			"count":1152,
			"max":[
				-10.761963844299316,
				8.507501602172852,
				-27.12257194519043
			],
			"min":[
				-12.761963844299316,
				6.507501602172852,
				-39.12257385253906
			],
			"type":"VEC3"
		},
		{
			"bufferView":21,
			"componentType":5126,
			"count":1152,
			"type":"VEC3"
		},
		{
			"bufferView":22,
			"componentType":5126,
			"count":1152,
			"type":"VEC2"
		},
		{
			"bufferView":23,
			"componentType":5123,
			"count":2232,
			"type":"SCALAR"
		},
		{
			"bufferView":24,
			"componentType":5126,
			"count":130,
			"max":[
				-2.5370116233825684,
				-31.16425323486328,
				29.145965576171875
			],
			"min":[
				-4.537011623382568,
				-33.16425323486328,
				27.145965576171875
			],
			"type":"VEC3"
		},
		{
			"bufferView":25,
			"componentType":5126,
			"count":130,
			"type":"VEC3"
		},
		{
			"bufferView":26,
			"componentType":5126,
			"count":130,
			"type":"VEC2"
		},
		{
			"bufferView":27,
			"componentType":5126,
			"count":744,
			"max":[
				9.937577247619629,
				-6.293825149536133,
				1.2709559202194214
			],
			"min":[
				7.937577247619629,
				-8.293825149536133,
				-4.729043960571289
			],
			"type":"VEC3"
		},
		{
			"bufferView":28,
			"componentType":5126,
			"count":744,
			"type":"VEC3"
		},
		{
			"bufferView":29,
			"componentType":5126,
			"count":744,
			"type":"VEC2"
		},
		{
			"bufferView":30,
			"componentType":5123,
			"count":1116,
			"type":"SCALAR"
		}
	],
	"bufferViews":[
		{
			"buffer":0,
			"byteLength":14904,
			"byteOffset":0,
			"target":34962
		},
		{
			"buffer":0,
			"byteLength":14904,
			"byteOffset":14904,
			"target":34962
		},
		{
			"buffer":0,
			"byteLength":9936,
			"byteOffset":29808,
			"target":34962
		},
		{
			"buffer":0,
			"byteLength":9072,
			"byteOffset":39744,
			"target":34963
		},
		{
			"buffer":0,
			"byteLength":1560,
			"byteOffset":48816,
			"target":34962
		},
		{
			"buffer":0,
			"byteLength":1560,
			"byteOffset":50376,
			"target":34962
		},
		{
			"buffer":0,
			"byteLength":1040,
			"byteOffset":51936,
			"target":34962
		},
		{
			"buffer":0,
			"byteLength":744,
			"byteOffset":52976,
			"target":34963
		},
		{
			"buffer":0,
			"byteLength":972,
			"byteOffset":53720,
			"target":34962
		},
		{
			"buffer":0,
			"byteLength":972,
			"byteOffset":54692,
			"target":34962
		},
		{
			"buffer":0,
			"byteLength":648,
			"byteOffset":55664,
			"target":34962
		},
		{
			"buffer":0,
			"byteLength":360,
			"byteOffset":56312,
			"target":34963
		},
		{
			"buffer":0,
			"byteLength":1560,
			"byteOffset":56672,
			"target":34962
		},
		{
			"buffer":0,
			"byteLength":1560,
			"byteOffset":58232,
			"target":34962
		},
		{
			"buffer":0,
			"byteLength":1040,
			"byteOffset":59792,
			"target":34962
		},
		{
			"buffer":0,
			"byteLength":744,
			"byteOffset":60832,
			"target":34963
		},
		{
			"buffer":0,
			"byteLength":9228,
			"byteOffset":61576,
			"target":34962
		},
		{
			"buffer":0,
			"byteLength":9228,
			"byteOffset":70804,
			"target":34962
		},
		{
			"buffer":0,
			"byteLength":6152,
			"byteOffset":80032,
			"target":34962
		},
		{
			"buffer":0,
			"byteLength":5352,
			"byteOffset":86184,
			"target":34963
		},
		{
			"buffer":0,
			"byteLength":13824,
			"byteOffset":91536,
			"target":34962
		},
		{
			"buffer":0,
			"byteLength":13824,
			"byteOffset":105360,
			"target":34962
		},
		{
			"buffer":0,
			"byteLength":9216,
			"byteOffset":119184,
			"target":34962
		},
		{
			"buffer":0,
			"byteLength":4464,
			"byteOffset":128400,
			"target":34963
		},
		{
			"buffer":0,
			"byteLength":1560,
			"byteOffset":132864,
			"target":34962
		},
		{
			"buffer":0,
			"byteLength":1560,
			"byteOffset":134424,
			"target":34962
		},
		{
			"buffer":0,
			"byteLength":1040,
			"byteOffset":135984,
			"target":34962
		},
		{
			"buffer":0,
			"byteLength":8928,
			"byteOffset":137024,
			"target":34962
		},
		{
			"buffer":0,
			"byteLength":8928,
			"byteOffset":145952,
			"target":34962
		},
		{
			"buffer":0,
			"byteLength":5952,
			"byteOffset":154880,
			"target":34962
		},
		{
			"buffer":0,
			"byteLength":2232,
			"byteOffset":160832,
			"target":34963
		}
	],
	"buffers":[
		{
			"byteLength":163064,
			"uri":"blauw.bin"
		}
	]
}
