{
	"asset":{
		"generator":"Khronos glTF Blender I/O v4.0.44",
		"version":"2.0"
	},
	"scene":0,
	"scenes":[
		{
			"name":"Scene",
			"nodes":[
				0,
				1,
				2,
				3,
				4,
				5,
				6,
				7
			]
		}
	],
	"nodes":[
		{
			"mesh":0,
			"name":"leftLeg",
			"scale":[
				0.10572291910648346,
				0.3487721383571625,
				0.1067286878824234
			]
		},
		{
			"mesh":1,
			"name":"rightLeg",
			"rotation":[
				-0.5,
				0.5,
				-0.5,
				0.5000000596046448
			],
			"scale":[
				0.23025456070899963,
				0.3013862073421478,
				0.24048058688640594
			]
		},
		{
			"mesh":2,
			"name":"body",
			"scale":[
				0.49383994936943054,
				0.727514922618866,
				0.4311010539531708
			]
		},
		{
			"mesh":3,
			"name":"eye.002",
			"rotation":[
				0,
				0,
				-0.7071068286895752,
				0.7071068286895752
			],
			"scale":[
				-0.390713632106781,
				-0.17411422729492188,
				-0.390713632106781
			]
		},
		{
			"mesh":4,
			"name":"eyecirckle",
			"rotation":[
				0,
				0,
				-0.7071068286895752,
				0.7071068286895752
			],
			"scale":[
				-0.4247506558895111,
				-0.18928217887878418,
				-0.4247506558895111
			]
		},
		{
			"mesh":5,
			"name":"leftArm",
			"rotation":[
				0,
				-0.7071068286895752,
				-0.7071068286895752,
				5.338507946817117e-08
			],
			"scale":[
				0.07595373690128326,
				0.31684061884880066,
				0.06617183983325958
			],
			"translation":[
				0.025616735219955444,
				0.01852804236114025,
				-5.160120010375977
			]
		},
		{
			"mesh":6,
			"name":"rightArm",
			"scale":[
				0.04588799923658371,
				0.06966935843229294,
				0.4752628803253174
			],
			"translation":[
				0.049849219620227814,
				0,
				0.007612541317939758
			]
		},
		{
			"mesh":7,
			"name":"leftHand",
			"scale":[
				0.04308472201228142,
				0.26737937331199646,
				0.04022619500756264
			],
			"translation":[
				-0.003000000026077032,
				0.022028570994734764,
				0.004000000189989805
			]
		}
	],
	"materials":[
		{
			"doubleSided":true,
			"name":"Material.001",
			"pbrMetallicRoughness":{
				"baseColorFactor":[
					0.21589680016040802,
					0.1541937291622162,
					0.21524272859096527,
					1
				],
				"metallicFactor":0,
				"roughnessFactor":0.5
			}
		},
		{
			"doubleSided":true,
			"name":"Material.002",
			"pbrMetallicRoughness":{
				"baseColorFactor":[
					0.14946670830249786,
					0.09585650265216827,
					0.7999992966651917,
					1
				],
				"metallicFactor":0,
				"roughnessFactor":0.5
			}
		},
		{
			"doubleSided":true,
			"name":"Material.008",
			"pbrMetallicRoughness":{
				"baseColorFactor":[
					0.7992379665374756,
					0.46776339411735535,
					0.12213006615638733,
					1
				],
				"metallicFactor":0,
				"roughnessFactor":0.5
			}
		},
		{
			"doubleSided":true,
			"name":"Material.004",
			"pbrMetallicRoughness":{
				"baseColorFactor":[
					0.7914310693740845,
					0.7990679740905762,
					0.6866357922554016,
					1
				],
				"metallicFactor":0,
				"roughnessFactor":0.5
			}
		},
		{
			"doubleSided":true,
			"name":"Material.005",
			"pbrMetallicRoughness":{
				"baseColorFactor":[
					0,
					0,
					0,
					1
				],
				"metallicFactor":0,
				"roughnessFactor":0.5
			}
		},
		{
			"doubleSided":true,
			"name":"Material.003",
			"pbrMetallicRoughness":{
				"baseColorFactor":[
					0.7992379665374756,
					0.46776339411735535,
					0.12213006615638733,
					1
				],
				"metallicFactor":0,
				"roughnessFactor":0.5
			}
		},
		{
			"doubleSided":true,
			"name":"Material.011",
			"pbrMetallicRoughness":{
				"baseColorFactor":[
					0.7992379665374756,
					0.46776339411735535,
					0.12213006615638733,
					1
				],
				"metallicFactor":0,
				"roughnessFactor":0.5
			}
		},
		{
			"doubleSided":true,
			"name":"Material.012",
			"pbrMetallicRoughness":{
				"baseColorFactor":[
					0.7992379665374756,
					0.46776339411735535,
					0.12213006615638733,
					1
				],
				"metallicFactor":0,
				"roughnessFactor":0.5
			}
		}
	],
	"meshes":[
		{
			"name":"Cube.011",
			"primitives":[
				{
					"attributes":{
						"POSITION":0,
						"NORMAL":1,
						"TEXCOORD_0":2
					},
					"indices":3,
					"material":0
				}
			]
		},
		{
			"name":"Cylinder.007",
			"primitives":[
				{
					"attributes":{
						"POSITION":4,
						"NORMAL":5,
						"TEXCOORD_0":6
					},
					"indices":7,
					"material":1
				}
			]
		},
		{
			"name":"Cylinder.001",
			"primitives":[
				{
					"attributes":{
						"POSITION":8,
						"NORMAL":9,
						"TEXCOORD_0":10
					},
					"indices":11,
					"material":2
				}
			]
		},
		{
			"name":"Cylinder.003",
			"primitives":[
				{
					"attributes":{
						"POSITION":12,
						"NORMAL":13,
						"TEXCOORD_0":14
					},
					"indices":15,
					"material":3
				}
			]
		},
		{
			"name":"Cylinder.006",
			"primitives":[
				{
					"attributes":{
						"POSITION":16,
						"NORMAL":17,
						"TEXCOORD_0":18
					},
					"indices":15,
					"material":4
				}
			]
		},
		{
			"name":"Cube.003",
			"primitives":[
				{
					"attributes":{
						"POSITION":19,
						"NORMAL":20,
						"TEXCOORD_0":21
					},
					"indices":22,
					"material":5
				}
			]
		},
		{
			"name":"Cube.008",
			"primitives":[
				{
					"attributes":{
						"POSITION":23,
						"NORMAL":24,
						"TEXCOORD_0":25
					},
					"indices":26,
					"material":6
				}
			]
		},
		{
			"name":"Cube.012",
			"primitives":[
				{
					"attributes":{
						"POSITION":27,
						"NORMAL":28,
						"TEXCOORD_0":29
					},
					"indices":30,
					"material":7
				}
			]
		}
	],
	"accessors":[
		{
			"bufferView":0,
			"componentType":5126,
			"count":66,
			"max":[
				1.982285976409912,
				-1.038625717163086,
				-39.764007568359375
			],
			"min":[
				-0.017714083194732666,
				-3.038625717163086,
				-41.764007568359375
			],
			"type":"VEC3"
		},
		{
			"bufferView":1,
			"componentType":5126,
			"count":66,
			"type":"VEC3"
		},
		{
			"bufferView":2,
			"componentType":5126,
			"count":66,
			"type":"VEC2"
		},
		{
			"bufferView":3,
			"componentType":5123,
			"count":228,
			"type":"SCALAR"
		},
		{
			"bufferView":4,
			"componentType":5126,
			"count":546,
			"max":[
				2.747060775756836,
				17.574337005615234,
				1.3292262554168701
			],
			"min":[
				0.7470606565475464,
				15.574337005615234,
				-0.6707737445831299
			],
			"type":"VEC3"
		},
		{
			"bufferView":5,
			"componentType":5126,
			"count":546,
			"type":"VEC3"
		},
		{
			"bufferView":6,
			"componentType":5126,
			"count":546,
			"type":"VEC2"
		},
		{
			"bufferView":7,
			"componentType":5123,
			"count":1908,
			"type":"SCALAR"
		},
		{
			"bufferView":8,
			"componentType":5126,
			"count":2114,
			"max":[
				1,
				1,
				-9.52486801147461
			],
			"min":[
				-1,
				-1,
				-11.52486801147461
			],
			"type":"VEC3"
		},
		{
			"bufferView":9,
			"componentType":5126,
			"count":2114,
			"type":"VEC3"
		},
		{
			"bufferView":10,
			"componentType":5126,
			"count":2114,
			"type":"VEC2"
		},
		{
			"bufferView":11,
			"componentType":5123,
			"count":8052,
			"type":"SCALAR"
		},
		{
			"bufferView":12,
			"componentType":5126,
			"count":130,
			"max":[
				1.2307616472244263,
				-0.9498907327651978,
				12.690873146057129
			],
			"min":[
				-0.7692383527755737,
				-2.949890613555908,
				10.690873146057129
			],
			"type":"VEC3"
		},
		{
			"bufferView":13,
			"componentType":5126,
			"count":130,
			"type":"VEC3"
		},
		{
			"bufferView":14,
			"componentType":5126,
			"count":130,
			"type":"VEC2"
		},
		{
			"bufferView":15,
			"componentType":5123,
			"count":372,
			"type":"SCALAR"
		},
		{
			"bufferView":16,
			"componentType":5126,
			"count":130,
			"max":[
				0.34619879722595215,
				-2.5767881870269775,
				10.87031078338623
			],
			"min":[
				0.07834059000015259,
				-2.844646453857422,
				10.602452278137207
			],
			"type":"VEC3"
		},
		{
			"bufferView":17,
			"componentType":5126,
			"count":130,
			"type":"VEC3"
		},
		{
			"bufferView":18,
			"componentType":5126,
			"count":130,
			"type":"VEC2"
		},
		{
			"bufferView":19,
			"componentType":5126,
			"count":85,
			"max":[
				0.9535017013549805,
				4.30486536026001,
				0.6589678525924683
			],
			"min":[
				-0.17935395240783691,
				2.3048653602600098,
				-2.530259132385254
			],
			"type":"VEC3"
		},
		{
			"bufferView":20,
			"componentType":5126,
			"count":85,
			"type":"VEC3"
		},
		{
			"bufferView":21,
			"componentType":5126,
			"count":85,
			"type":"VEC2"
		},
		{
			"bufferView":22,
			"componentType":5123,
			"count":180,
			"type":"SCALAR"
		},
		{
			"bufferView":23,
			"componentType":5126,
			"count":194,
			"max":[
				1,
				1,
				-10.224921226501465
			],
			"min":[
				-1,
				-2.351567268371582,
				-11.094318389892578
			],
			"type":"VEC3"
		},
		{
			"bufferView":24,
			"componentType":5126,
			"count":194,
			"type":"VEC3"
		},
		{
			"bufferView":25,
			"componentType":5126,
			"count":194,
			"type":"VEC2"
		},
		{
			"bufferView":26,
			"componentType":5123,
			"count":714,
			"type":"SCALAR"
		},
		{
			"bufferView":27,
			"componentType":5126,
			"count":744,
			"max":[
				0.9797637462615967,
				-0.5947519540786743,
				-94.47859954833984
			],
			"min":[
				-1.0202362537384033,
				-2.5947518348693848,
				-100.47859954833984
			],
			"type":"VEC3"
		},
		{
			"bufferView":28,
			"componentType":5126,
			"count":744,
			"type":"VEC3"
		},
		{
			"bufferView":29,
			"componentType":5126,
			"count":744,
			"type":"VEC2"
		},
		{
			"bufferView":30,
			"componentType":5123,
			"count":1116,
			"type":"SCALAR"
		}
	],
	"bufferViews":[
		{
			"buffer":0,
			"byteLength":792,
			"byteOffset":0,
			"target":34962
		},
		{
			"buffer":0,
			"byteLength":792,
			"byteOffset":792,
			"target":34962
		},
		{
			"buffer":0,
			"byteLength":528,
			"byteOffset":1584,
			"target":34962
		},
		{
			"buffer":0,
			"byteLength":456,
			"byteOffset":2112,
			"target":34963
		},
		{
			"buffer":0,
			"byteLength":6552,
			"byteOffset":2568,
			"target":34962
		},
		{
			"buffer":0,
			"byteLength":6552,
			"byteOffset":9120,
			"target":34962
		},
		{
			"buffer":0,
			"byteLength":4368,
			"byteOffset":15672,
			"target":34962
		},
		{
			"buffer":0,
			"byteLength":3816,
			"byteOffset":20040,
			"target":34963
		},
		{
			"buffer":0,
			"byteLength":25368,
			"byteOffset":23856,
			"target":34962
		},
		{
			"buffer":0,
			"byteLength":25368,
			"byteOffset":49224,
			"target":34962
		},
		{
			"buffer":0,
			"byteLength":16912,
			"byteOffset":74592,
			"target":34962
		},
		{
			"buffer":0,
			"byteLength":16104,
			"byteOffset":91504,
			"target":34963
		},
		{
			"buffer":0,
			"byteLength":1560,
			"byteOffset":107608,
			"target":34962
		},
		{
			"buffer":0,
			"byteLength":1560,
			"byteOffset":109168,
			"target":34962
		},
		{
			"buffer":0,
			"byteLength":1040,
			"byteOffset":110728,
			"target":34962
		},
		{
			"buffer":0,
			"byteLength":744,
			"byteOffset":111768,
			"target":34963
		},
		{
			"buffer":0,
			"byteLength":1560,
			"byteOffset":112512,
			"target":34962
		},
		{
			"buffer":0,
			"byteLength":1560,
			"byteOffset":114072,
			"target":34962
		},
		{
			"buffer":0,
			"byteLength":1040,
			"byteOffset":115632,
			"target":34962
		},
		{
			"buffer":0,
			"byteLength":1020,
			"byteOffset":116672,
			"target":34962
		},
		{
			"buffer":0,
			"byteLength":1020,
			"byteOffset":117692,
			"target":34962
		},
		{
			"buffer":0,
			"byteLength":680,
			"byteOffset":118712,
			"target":34962
		},
		{
			"buffer":0,
			"byteLength":360,
			"byteOffset":119392,
			"target":34963
		},
		{
			"buffer":0,
			"byteLength":2328,
			"byteOffset":119752,
			"target":34962
		},
		{
			"buffer":0,
			"byteLength":2328,
			"byteOffset":122080,
			"target":34962
		},
		{
			"buffer":0,
			"byteLength":1552,
			"byteOffset":124408,
			"target":34962
		},
		{
			"buffer":0,
			"byteLength":1428,
			"byteOffset":125960,
			"target":34963
		},
		{
			"buffer":0,
			"byteLength":8928,
			"byteOffset":127388,
			"target":34962
		},
		{
			"buffer":0,
			"byteLength":8928,
			"byteOffset":136316,
			"target":34962
		},
		{
			"buffer":0,
			"byteLength":5952,
			"byteOffset":145244,
			"target":34962
		},
		{
			"buffer":0,
			"byteLength":2232,
			"byteOffset":151196,
			"target":34963
		}
	],
	"buffers":[
		{
			"byteLength":153428,
			"uri":"mannetje.bin"
		}
	]
}
